<svg xmlns="http://www.w3.org/2000/svg" id="a1a495d4-36ff-47ca-b2cb-242d74a49004" data-name="Layer 1" viewBox="0 0 992.13 283.46"><defs><style>.f52f2d07-8434-4d36-b6b8-b9f0fb517188{fill:#0977b3;}.ea73062b-8c03-4eb9-a816-a6e570213660{fill:#00172e;}.ec3ca21d-ca0d-47d9-9ab2-6f35d6b7f5d8{fill:#0a72b3;}.ae921980-06a1-4432-8948-f8dc78468ac9{fill:#a3c2db;}</style></defs><path class="f52f2d07-8434-4d36-b6b8-b9f0fb517188" d="M461.23,92a53.59,53.59,0,0,1,1.36-5.83,50.62,50.62,0,0,1,2.15-5.92,41.4,41.4,0,0,1,2.84-5.47A17.53,17.53,0,0,1,472,69.92a19.25,19.25,0,0,1,5.77-2.87,34.85,34.85,0,0,1,6.77-1.3q3.59-.33,8.18-.33,5.31,0,9.06.36a26.77,26.77,0,0,1,7.06,1.66,11.33,11.33,0,0,1,5.32,4.2,13.31,13.31,0,0,1,2,7.67,33.67,33.67,0,0,1-.48,5.32,55.2,55.2,0,0,1-1.42,6.22,50.06,50.06,0,0,1-2.33,6.4,43.49,43.49,0,0,1-3.08,5.8,12.91,12.91,0,0,1-4.44,4.28,21.89,21.89,0,0,1-6.09,2.45,42.16,42.16,0,0,1-6.74,1.06q-3.37.24-7.43.24c-4.14,0-7.5-.11-10.05-.33a22.37,22.37,0,0,1-6.92-1.67,10,10,0,0,1-4.77-4.19,15.08,15.08,0,0,1-1.69-7.7A31.29,31.29,0,0,1,461.23,92Zm24.95-11.57A7.58,7.58,0,0,0,483,84a27.34,27.34,0,0,0-2.12,5.35,18.69,18.69,0,0,0-.9,4.8,6.5,6.5,0,0,0,.48,2.65,4.47,4.47,0,0,0,1.33,1.76,5.82,5.82,0,0,0,3.68,1.08,12,12,0,0,0,5-.81,7.27,7.27,0,0,0,3-3.29,16.38,16.38,0,0,0,.85-1.66c.32-.71.64-1.54,1-2.51a25.22,25.22,0,0,0,.81-3.17,18.14,18.14,0,0,0,.33-3.41A4.87,4.87,0,0,0,495,81a6.42,6.42,0,0,0-4.43-1.3A10.92,10.92,0,0,0,486.18,80.43Z"></path><path class="f52f2d07-8434-4d36-b6b8-b9f0fb517188" d="M529.48,66.69h43.78L569.4,80.94H544.45l-1.26,5h24.88l-3.38,12.62h-25l-3,11.29H518.36Z"></path><path class="f52f2d07-8434-4d36-b6b8-b9f0fb517188" d="M583.47,66.69h43.78l-3.86,14.25H598.44l-1.26,5h24.88l-3.38,12.62H593.73l-3,11.29H572.35Z"></path><path class="f52f2d07-8434-4d36-b6b8-b9f0fb517188" d="M628.7,98.21a169.48,169.48,0,0,0,20.65,1.39c.77,0,1.45,0,2.06-.06a9.72,9.72,0,0,0,1.9-.33,3.94,3.94,0,0,0,1.63-.84,2.08,2.08,0,0,0,.63-1.61,2.16,2.16,0,0,0-.36-1.32,2.59,2.59,0,0,0-1.54-.76,20.51,20.51,0,0,0-3.53-.36q-2.35-.09-6.46-.09a21.38,21.38,0,0,1-4.29-.42,12,12,0,0,1-3.71-1.42A7.54,7.54,0,0,1,633,89.7a7.92,7.92,0,0,1-1-4.11A23.82,23.82,0,0,1,632.9,79a21,21,0,0,1,2.47-5.62,16.38,16.38,0,0,1,3.84-4.22,14.76,14.76,0,0,1,4.89-2.51,31.18,31.18,0,0,1,6.37-1c2.44-.16,5.1-.24,8-.24q5.68,0,12.14.36t12.44,1.27l-3.8,13.35a148.38,148.38,0,0,0-17.58-1.33q-5.13,0-7,.73a2.46,2.46,0,0,0-1.87,2.35,1.6,1.6,0,0,0,.36,1.12,2.85,2.85,0,0,0,1.45.63,21.39,21.39,0,0,0,3.17.36c1.39.08,3.29.13,5.71.13a48.34,48.34,0,0,1,5.34.24,11.55,11.55,0,0,1,3.84,1.11,6.22,6.22,0,0,1,2.74,2.81,11.35,11.35,0,0,1,1,5.2,19,19,0,0,1-.91,5.4,20.45,20.45,0,0,1-1.93,4.74,13.1,13.1,0,0,1-3.29,3.66,14.19,14.19,0,0,1-4.41,2.17,29.75,29.75,0,0,1-5.86,1.06q-3.35.3-8.12.3-7.54,0-13.83-.49A121.47,121.47,0,0,1,626,109.08Z"></path><path class="f52f2d07-8434-4d36-b6b8-b9f0fb517188" d="M694.59,66.69H713l-4.17,15.64h11.29l4.17-15.64H742.6l-11.53,43.12H712.71l4.1-15.4H705.52l-4.11,15.4H683.05Z"></path><path class="f52f2d07-8434-4d36-b6b8-b9f0fb517188" d="M746.34,92a53.59,53.59,0,0,1,1.36-5.83,50.62,50.62,0,0,1,2.15-5.92,42.6,42.6,0,0,1,2.83-5.47,17.72,17.72,0,0,1,4.47-4.86,19.25,19.25,0,0,1,5.77-2.87,34.85,34.85,0,0,1,6.77-1.3q3.59-.33,8.18-.33,5.31,0,9.06.36A26.77,26.77,0,0,1,794,67.44a11.33,11.33,0,0,1,5.32,4.2,13.31,13.31,0,0,1,2,7.67,33.67,33.67,0,0,1-.48,5.32,57.48,57.48,0,0,1-1.42,6.22,50.06,50.06,0,0,1-2.33,6.4,43.49,43.49,0,0,1-3.08,5.8,12.91,12.91,0,0,1-4.44,4.28,21.84,21.84,0,0,1-6.1,2.45,41.87,41.87,0,0,1-6.73,1.06q-3.37.24-7.43.24c-4.14,0-7.5-.11-10-.33a22.37,22.37,0,0,1-6.92-1.67,10,10,0,0,1-4.77-4.19,15.08,15.08,0,0,1-1.69-7.7A31.29,31.29,0,0,1,746.34,92Zm24.95-11.57a7.58,7.58,0,0,0-3.2,3.53A27.34,27.34,0,0,0,766,89.31a18.69,18.69,0,0,0-.9,4.8,6.5,6.5,0,0,0,.48,2.65,4.47,4.47,0,0,0,1.33,1.76,5.82,5.82,0,0,0,3.68,1.08,12,12,0,0,0,5-.81,7.27,7.27,0,0,0,3-3.29c.24-.41.53-1,.85-1.66a25.82,25.82,0,0,0,1-2.51,23.58,23.58,0,0,0,.82-3.17,18.14,18.14,0,0,0,.33-3.41A4.87,4.87,0,0,0,780.13,81a6.43,6.43,0,0,0-4.44-1.3A10.9,10.9,0,0,0,771.29,80.43Z"></path><path class="f52f2d07-8434-4d36-b6b8-b9f0fb517188" d="M814.71,66.69h35.63c3.86,0,6.49.78,7.88,2.32s2.08,4,2.08,7.28q0,7.8-3.83,11.81a13.19,13.19,0,0,1-10,4h-3.26l12.5,17.7H834.15l-8.93-15-3.87,15H802.93Zm12.68,21h8.27a5.6,5.6,0,0,0,4.5-1.79,6.09,6.09,0,0,0,1.54-4.13c0-2-1.33-3-4-3h-8Z"></path><path class="f52f2d07-8434-4d36-b6b8-b9f0fb517188" d="M873.59,66.69H918.1l-3.56,13.65H888.81l-1.21,4.83h25.73l-2.42,9.3H885.19l-1,3.86h25.73l-3,11.48H862.48Z"></path><path class="ea73062b-8c03-4eb9-a816-a6e570213660" d="M471.93,156.94a13.06,13.06,0,0,1-4.7,3.32,15.58,15.58,0,0,1-6,1.11q-5.86,0-9.18-3.65t-3.32-10.09v-.1q0-11,5.16-17.67a16.32,16.32,0,0,1,13.57-6.7,14.84,14.84,0,0,1,5.72,1,9.83,9.83,0,0,1,4,3l-1.32,6a9.69,9.69,0,0,0-3.84-3.44,12.06,12.06,0,0,0-5.49-1.18,10.18,10.18,0,0,0-8.93,5.07q-3.3,5.06-3.3,13.7,0,4.69,1.88,6.93c1.25,1.5,3.19,2.24,5.82,2.24a12.54,12.54,0,0,0,5.68-1.47,20.39,20.39,0,0,0,5.5-4.22Z"></path><path class="ea73062b-8c03-4eb9-a816-a6e570213660" d="M489.46,157.55q-3.57-3.81-3.57-10.14,0-.69.06-1.56c0-.59.09-1.13.16-1.64q1.33-10.72,5.8-15.89t12.41-5.16q6.42,0,10,3.65T518,136.93c0,.54,0,1.12-.07,1.73a17,17,0,0,1-.17,1.72q-1.25,9.85-6.25,15.44a16.11,16.11,0,0,1-12.57,5.55A12.31,12.31,0,0,1,489.46,157.55Zm18.47-5.22q3.35-4.17,4.26-11.57.12-.91.18-1.74c0-.55.06-1.09.06-1.61q0-4.53-2.16-6.68t-6.71-2.16a9.78,9.78,0,0,0-8,3.67q-2.94,3.66-3.82,11c-.11.86-.19,1.63-.23,2.32s-.07,1.36-.08,2c0,3.14.62,5.41,1.9,6.81s3.38,2.09,6.28,2.09A10.24,10.24,0,0,0,507.93,152.33Z"></path><path class="ea73062b-8c03-4eb9-a816-a6e570213660" d="M531.73,160.63h-4.66l7-36.73h8L551,158.21l6.53-34.31h4.66l-7,36.73h-8.08l-8.84-34.19Z"></path><path class="ea73062b-8c03-4eb9-a816-a6e570213660" d="M595.76,132.43a10.2,10.2,0,0,0-3.93-2.82,13.24,13.24,0,0,0-5.18-1,7.87,7.87,0,0,0-4.66,1.29,5.11,5.11,0,0,0-2.13,3.55,4.23,4.23,0,0,0,.84,3.78q1.17,1.32,4.75,2.44c3.25,1,5.55,2.35,6.92,4.07a7.5,7.5,0,0,1,1.65,4.77,15.49,15.49,0,0,1-.15,1.62,13.12,13.12,0,0,1-4.33,8.24,12.61,12.61,0,0,1-8.64,3,16.28,16.28,0,0,1-6-1,12,12,0,0,1-4.54-3.2l1.17-5.74a17.2,17.2,0,0,0,4.42,3.82,8.89,8.89,0,0,0,4.46,1.3,8.21,8.21,0,0,0,5.34-1.69,7.14,7.14,0,0,0,2.57-4.68,4,4,0,0,0-.86-3.59c-.81-.83-2.48-1.63-5-2.42a12.74,12.74,0,0,1-6.58-4.16,7.88,7.88,0,0,1-1.69-5,10.1,10.1,0,0,1,.12-1.51,11.72,11.72,0,0,1,4.11-7.53,12.58,12.58,0,0,1,8.32-2.79,15.94,15.94,0,0,1,5.43.89,16.19,16.19,0,0,1,4.78,2.8Z"></path><path class="ea73062b-8c03-4eb9-a816-a6e570213660" d="M618.25,129.32H608l.53-2.71.5-2.71h25.66l-.5,2.71-.53,2.71H623.39l-6,31.31h-5.14Z"></path><path class="ea73062b-8c03-4eb9-a816-a6e570213660" d="M646.53,123.9h11.85c3.48,0,6.06.61,7.76,1.84a6.4,6.4,0,0,1,2.53,5.56,14.07,14.07,0,0,1-3.14,9.48,10.15,10.15,0,0,1-8.08,3.69h-2.8l9.43,16.16h-6.24l-9.7-18.17h0l-3.44,18.17h-5.14Zm1.9,16.93h5.26q5,0,7.29-2t2.28-6.18a2.71,2.71,0,0,0-1.39-2.63,11.47,11.47,0,0,0-4.94-.74h-6.29Z"></path><path class="ea73062b-8c03-4eb9-a816-a6e570213660" d="M705.8,147.61a17.52,17.52,0,0,1-5.3,10.12,14.35,14.35,0,0,1-10,3.64q-6.47,0-9.46-3.66a10.07,10.07,0,0,1-2.08-6.56,19,19,0,0,1,.36-3.54l4.52-23.71H689l-4.68,24.51a11.36,11.36,0,0,0-.24,2.38,5.58,5.58,0,0,0,1.13,3.71c1.08,1.34,3,2,5.68,2a9.49,9.49,0,0,0,6.31-2.19,9.91,9.91,0,0,0,3.31-5.91l4.67-24.51h5.14Z"></path><path class="ea73062b-8c03-4eb9-a816-a6e570213660" d="M743.12,156.94a13.06,13.06,0,0,1-4.7,3.32,15.58,15.58,0,0,1-6,1.11q-5.86,0-9.18-3.65t-3.32-10.09v-.1q0-11,5.16-17.67a16.32,16.32,0,0,1,13.57-6.7,14.84,14.84,0,0,1,5.72,1,9.83,9.83,0,0,1,4,3l-1.32,6a9.69,9.69,0,0,0-3.84-3.44,12.06,12.06,0,0,0-5.49-1.18,10.18,10.18,0,0,0-8.93,5.07q-3.3,5.06-3.3,13.7,0,4.69,1.88,6.93c1.25,1.5,3.19,2.24,5.82,2.24a12.47,12.47,0,0,0,5.67-1.47,20.28,20.28,0,0,0,5.51-4.22Z"></path><path class="ea73062b-8c03-4eb9-a816-a6e570213660" d="M768.81,129.32H758.54l.53-2.71.5-2.71h25.66l-.5,2.71-.53,2.71H774l-6,31.31h-5.14Z"></path><path class="ea73062b-8c03-4eb9-a816-a6e570213660" d="M796.8,123.9h5.14l-7,36.73h-5.14Z"></path><path class="ea73062b-8c03-4eb9-a816-a6e570213660" d="M815.15,157.55q-3.57-3.81-3.57-10.14,0-.69.06-1.56c0-.59.09-1.13.15-1.64q1.35-10.72,5.81-15.89T830,123.16q6.42,0,10,3.65t3.62,10.12c0,.54,0,1.12-.07,1.73a17,17,0,0,1-.17,1.72q-1.24,9.85-6.25,15.44a16.11,16.11,0,0,1-12.57,5.55A12.3,12.3,0,0,1,815.15,157.55Zm18.47-5.22c2.23-2.78,3.64-6.64,4.26-11.57q.12-.91.18-1.74c0-.55.06-1.09.06-1.61q0-4.53-2.16-6.68t-6.71-2.16a9.78,9.78,0,0,0-8,3.67q-2.94,3.66-3.82,11c-.11.86-.19,1.63-.23,2.32s-.07,1.36-.08,2c0,3.14.62,5.41,1.9,6.81s3.38,2.09,6.28,2.09A10.24,10.24,0,0,0,833.62,152.33Z"></path><path class="ea73062b-8c03-4eb9-a816-a6e570213660" d="M857.42,160.63h-4.66l7-36.73h8l8.88,34.31,6.53-34.31h4.66l-7,36.73h-8.07l-8.85-34.19Z"></path><path class="ea73062b-8c03-4eb9-a816-a6e570213660" d="M448.25,171.94h8.38l4.5,36.72h-5.4l-1-10h-15l-5.1,10h-5.43Zm-5.91,21.57h11.84l-1.9-19.25h0Z"></path><path class="ea73062b-8c03-4eb9-a816-a6e570213660" d="M500.29,180.46a10,10,0,0,0-3.93-2.81,13,13,0,0,0-5.18-1,7.89,7.89,0,0,0-4.66,1.29,5.18,5.18,0,0,0-2.13,3.54,4.25,4.25,0,0,0,.84,3.79c.78.87,2.37,1.69,4.75,2.44,3.25,1,5.56,2.34,6.92,4.07a7.38,7.38,0,0,1,1.65,4.76,14,14,0,0,1-4.47,9.87,12.7,12.7,0,0,1-8.64,3,16.28,16.28,0,0,1-6-1,12.1,12.1,0,0,1-4.55-3.2l1.18-5.75a17,17,0,0,0,4.41,3.82,8.94,8.94,0,0,0,4.46,1.31,8.29,8.29,0,0,0,5.35-1.69,7.18,7.18,0,0,0,2.56-4.68,4,4,0,0,0-.86-3.59q-1.21-1.25-5-2.42a12.73,12.73,0,0,1-6.58-4.17,7.88,7.88,0,0,1-1.69-5,10.1,10.1,0,0,1,.12-1.51,11.76,11.76,0,0,1,4.11-7.52,12.61,12.61,0,0,1,8.33-2.79,15.88,15.88,0,0,1,5.42.88,16.28,16.28,0,0,1,4.78,2.8Z"></path><path class="ea73062b-8c03-4eb9-a816-a6e570213660" d="M536.73,180.46a10,10,0,0,0-3.92-2.81,13.08,13.08,0,0,0-5.19-1A7.89,7.89,0,0,0,523,177.9a5.18,5.18,0,0,0-2.13,3.54,4.25,4.25,0,0,0,.84,3.79,11.16,11.16,0,0,0,4.75,2.44c3.25,1,5.56,2.34,6.92,4.07A7.38,7.38,0,0,1,535,196.5a14,14,0,0,1-4.47,9.87,12.68,12.68,0,0,1-8.64,3,16.28,16.28,0,0,1-6-1,12.18,12.18,0,0,1-4.55-3.2l1.18-5.75a17.14,17.14,0,0,0,4.41,3.82,8.94,8.94,0,0,0,4.46,1.31,8.29,8.29,0,0,0,5.35-1.69,7.23,7.23,0,0,0,2.57-4.68,4,4,0,0,0-.86-3.59q-1.23-1.25-5-2.42a12.73,12.73,0,0,1-6.58-4.17,7.93,7.93,0,0,1-1.69-5,10.1,10.1,0,0,1,.12-1.51,11.76,11.76,0,0,1,4.11-7.52,12.61,12.61,0,0,1,8.33-2.79,15.84,15.84,0,0,1,5.42.88,16.28,16.28,0,0,1,4.78,2.8Z"></path><path class="ea73062b-8c03-4eb9-a816-a6e570213660" d="M553,205.59q-3.57-3.83-3.56-10.14c0-.46,0-1,.06-1.57s.09-1.13.15-1.64q1.35-10.73,5.81-15.88t12.41-5.16q6.42,0,10,3.65T581.54,185c0,.54,0,1.12-.08,1.74a17.17,17.17,0,0,1-.16,1.71q-1.24,9.87-6.25,15.44a16.1,16.1,0,0,1-12.57,5.56A12.36,12.36,0,0,1,553,205.59Zm18.48-5.22c2.22-2.79,3.64-6.64,4.25-11.58.08-.6.14-1.18.18-1.73s.06-1.09.06-1.62c0-3-.72-5.24-2.15-6.68s-3.68-2.15-6.72-2.15a9.8,9.8,0,0,0-8,3.66q-3,3.66-3.82,11c-.12.87-.19,1.64-.23,2.33s-.07,1.36-.09,2c0,3.14.62,5.42,1.91,6.81s3.38,2.1,6.28,2.1A10.24,10.24,0,0,0,571.5,200.37Z"></path><path class="ea73062b-8c03-4eb9-a816-a6e570213660" d="M617.26,205a13.08,13.08,0,0,1-4.69,3.31,15.48,15.48,0,0,1-6,1.12q-5.87,0-9.18-3.66T594,195.66v-.09q0-11,5.16-17.67a16.29,16.29,0,0,1,13.56-6.7,14.85,14.85,0,0,1,5.72,1,9.92,9.92,0,0,1,4,3l-1.31,6a9.6,9.6,0,0,0-3.85-3.45,12.19,12.19,0,0,0-5.49-1.17,10.2,10.2,0,0,0-8.93,5.06q-3.3,5.07-3.3,13.71c0,3.12.63,5.44,1.88,6.93s3.19,2.24,5.82,2.24a12.51,12.51,0,0,0,5.68-1.47,20.44,20.44,0,0,0,5.5-4.23Z"></path><path class="ea73062b-8c03-4eb9-a816-a6e570213660" d="M638.43,171.94h5.14l-7,36.72h-5.14Z"></path><path class="ea73062b-8c03-4eb9-a816-a6e570213660" d="M669.6,171.94H678l4.5,36.72h-5.4l-1-10H661l-5.1,10H650.5Zm-5.9,21.57h11.83l-1.9-19.25h0Z"></path><path class="ea73062b-8c03-4eb9-a816-a6e570213660" d="M709.66,177.35H699.39l.52-2.71.51-2.7h25.66l-.51,2.7-.52,2.71H714.8l-6,31.31H703.7Z"></path><path class="ea73062b-8c03-4eb9-a816-a6e570213660" d="M732.71,208.66l7-36.72H762l-.5,2.7-.53,2.71H743.84l-2,10.37H759l-.46,2.44-.48,2.44H740.92l-2.13,11.18H756l-.45,2.44-.46,2.44Z"></path><path class="ea73062b-8c03-4eb9-a816-a6e570213660" d="M796.32,180.46a10.08,10.08,0,0,0-3.93-2.81,13,13,0,0,0-5.18-1,7.89,7.89,0,0,0-4.66,1.29,5.18,5.18,0,0,0-2.13,3.54,4.25,4.25,0,0,0,.84,3.79c.78.87,2.37,1.69,4.75,2.44,3.25,1,5.56,2.34,6.92,4.07a7.44,7.44,0,0,1,1.65,4.76,14,14,0,0,1-4.47,9.87,12.7,12.7,0,0,1-8.64,3,16.28,16.28,0,0,1-6-1,12.1,12.1,0,0,1-4.55-3.2l1.18-5.75a17,17,0,0,0,4.41,3.82,8.94,8.94,0,0,0,4.46,1.31,8.29,8.29,0,0,0,5.35-1.69,7.22,7.22,0,0,0,2.56-4.68,4,4,0,0,0-.86-3.59q-1.22-1.25-5-2.42A12.73,12.73,0,0,1,776.4,188a7.88,7.88,0,0,1-1.69-5,10.1,10.1,0,0,1,.12-1.51,11.71,11.71,0,0,1,4.11-7.52,12.6,12.6,0,0,1,8.32-2.79,15.9,15.9,0,0,1,5.43.88,16.28,16.28,0,0,1,4.78,2.8Z"></path><path class="ea73062b-8c03-4eb9-a816-a6e570213660" d="M338.8,193.5A106.11,106.11,0,0,1,289,208.58a108.1,108.1,0,0,1-40.56-6.29,98.85,98.85,0,0,1-18.18-8.51A149.23,149.23,0,0,1,216.46,184c-4.17-3.16-8.65-6.55-14.26-11.52-5-4.43-9.21-8.63-12.95-12.35-2.26-2.25-4.08-4.13-7.53-7.48-2.89-2.81-5.3-5.09-6.93-6.63h0c-7.12-6.79-13.29-12.39-18.1-16.65-7.74-6.85-11.17-9.56-15.44-12.35a113.39,113.39,0,0,0-12-6.75,100.21,100.21,0,0,0-18.44-7.52,91.57,91.57,0,0,0-12.5-2.58,94.38,94.38,0,0,0-26.7.26c6.48-3.56,26.16-13.9,46.34-16.78a124.62,124.62,0,0,1,14-1.12,105.07,105.07,0,0,1,23.31,2.23,99.74,99.74,0,0,1,15.62,4.72,105.71,105.71,0,0,1,13.9,6.8,129.89,129.89,0,0,1,18.15,13,213.11,213.11,0,0,1,16.61,15.49c8.55,8.65,19.68,19.93,31.16,30.44,2.76,2.54,18.66,17,33,25.18a102.51,102.51,0,0,0,12.21,5.87,97.92,97.92,0,0,0,12.92,4,111.6,111.6,0,0,0,14.34,2.58A114.16,114.16,0,0,0,338.8,193.5Z"></path><path class="ec3ca21d-ca0d-47d9-9ab2-6f35d6b7f5d8" d="M392.42,156.64a93.06,93.06,0,0,1-32.5,10.63,86.5,86.5,0,0,1-28.14-.81A84.93,84.93,0,0,1,307.23,157a105.69,105.69,0,0,1-9.91-6.6c-6-4.29-10.26-7.9-11.39-8.87-1.84-1.56-2.2-1.93-4-3.58-2-1.82-4.63-4.18-5.81-5.23-3.83-3.41-6.52-6.28-11-10.6-7-6.74-12.71-11.46-14.33-12.8a126.9,126.9,0,0,0-12.27-9.25,89,89,0,0,0-9.68-5.63,76.68,76.68,0,0,0-27.07-7.82,84,84,0,0,0-18.37.16,118,118,0,0,1,24.4-9.9,92,92,0,0,1,12.77-2.68,94.34,94.34,0,0,1,14.6-.68,69.5,69.5,0,0,1,28,5.87,83.61,83.61,0,0,1,11.71,6.28,118.27,118.27,0,0,1,11,7.83A190.76,190.76,0,0,1,300.32,106c18,17.11,16.49,16.34,23.28,22.29,9.2,8.06,16,12.87,22.16,16.49a90.05,90.05,0,0,0,11.85,5.94,82.26,82.26,0,0,0,11.54,3.8,76.1,76.1,0,0,0,11.15,1.77A89.19,89.19,0,0,0,392.42,156.64Z"></path><path class="ae921980-06a1-4432-8948-f8dc78468ac9" d="M432.46,128a52.79,52.79,0,0,1-21.21,7.9,53.78,53.78,0,0,1-23.54-2.07,57.41,57.41,0,0,1-12.94-5.69,87.33,87.33,0,0,1-7.67-5.42c-2.31-1.75-4.8-3.64-7.91-6.39-2.29-2-4.07-3.79-7.18-6.85-.8-.79-1.78-1.78-3.75-3.75-4.63-4.64-4.67-4.72-6-6-4.15-4.08-8.1-7.45-8.1-7.45a82.46,82.46,0,0,0-11.79-8.82,60.59,60.59,0,0,0-7.55-3.87,51.45,51.45,0,0,0-8.64-2.72,47.88,47.88,0,0,0-11.59-1.13,44.23,44.23,0,0,0-5.94.62c4.53-2.82,13.42-7.72,23.81-9.26a62.34,62.34,0,0,1,7.76-.61A58.2,58.2,0,0,1,334.29,68a53,53,0,0,1,11.76,4.27,60.31,60.31,0,0,1,7.74,4.83c.68.48,3.76,2.65,8.1,6.4,2.58,2.23,4.9,4.41,8.07,7.58,8.89,8.89,8.85,9.87,14.67,15.36A133,133,0,0,0,396,115.88c6.45,4.81,10,6.54,11.28,7.13a44.25,44.25,0,0,0,8.79,3.18,66.09,66.09,0,0,0,10.18,1.42C428.85,127.84,431,128,432.46,128Z"></path></svg>